<svg xmlns="http://www.w3.org/2000/svg" width="690.841" height="173.334" viewBox="0 0 690.841 173.334"><defs><style>.a{fill:#c7292f;}</style></defs><g transform="translate(105.06 119.053)"><path class="a" d="M-11.775,4550.308H6.954q7.554,0,12.317,4.032t4.761,11.523a15.831,15.831,0,0,1-2.889,9.682,15.25,15.25,0,0,1-7.841,5.492l18.03,21.648H16.159l-16-20.7v20.7H-11.775ZM.16,4573.544h1.4q1.65,0,2.794-.063a13.288,13.288,0,0,0,2.6-.445,6.355,6.355,0,0,0,2.349-1.079,5.575,5.575,0,0,0,1.524-2.031,8.576,8.576,0,0,0,0-6.476,5.588,5.588,0,0,0-1.524-2.032,6.386,6.386,0,0,0-2.349-1.079,13.432,13.432,0,0,0-2.6-.445q-1.143-.062-2.794-.063H.16Z" transform="translate(11.775 -4549.355)"/><path class="a" d="M120.321,4574.5a26.389,26.389,0,0,1,7.746-19.236,26.1,26.1,0,0,1,37.33-.032,26.476,26.476,0,0,1,7.682,19.268,26.785,26.785,0,0,1-7.555,19.332,25.035,25.035,0,0,1-18.792,7.842q-11.491,0-18.951-7.778T120.321,4574.5Zm12.888,0a21.331,21.331,0,0,0,1.27,7.524,12.545,12.545,0,0,0,4.444,5.746,12.763,12.763,0,0,0,7.809,2.349q6.666,0,10.063-4.571a18,18,0,0,0,3.4-11.047,17.811,17.811,0,0,0-3.46-11.015q-3.461-4.6-10-4.6-6.476,0-10,4.6A17.59,17.59,0,0,0,133.209,4574.5Z" transform="translate(-77.214 -4547.39)"/><path class="a" d="M290.942,4574.5a26.388,26.388,0,0,1,7.745-19.236,26.1,26.1,0,0,1,37.33-.032A26.476,26.476,0,0,1,343.7,4574.5a26.785,26.785,0,0,1-7.555,19.332,25.034,25.034,0,0,1-18.792,7.842q-11.491,0-18.951-7.778T290.942,4574.5Zm12.888,0a21.332,21.332,0,0,0,1.27,7.524,12.544,12.544,0,0,0,4.444,5.746,12.762,12.762,0,0,0,7.809,2.349q6.666,0,10.063-4.571a18,18,0,0,0,3.4-11.047,17.811,17.811,0,0,0-3.46-11.015q-3.461-4.6-10-4.6-6.476,0-10,4.6A17.589,17.589,0,0,0,303.83,4574.5Z" transform="translate(-192.157 -4547.39)"/><path class="a" d="M506.292,4602.684l-2.476-31.044H503.5l-10.729,30.728h-7.111l-10.729-30.728h-.318l-2.476,31.044H460.2l4.7-52.376h12.7l11.618,30.22,11.618-30.22h12.7l4.7,52.376Z" transform="translate(-306.181 -4549.355)"/><path class="a" d="M735.881,4550.308v10.475H717.85V4571.2h17.269v10.475H717.85v10.54h18.03v10.474H705.915v-52.376Z" transform="translate(-471.712 -4549.355)"/><path class="a" d="M833.2,4547.39a28.388,28.388,0,0,1,8.316,1.237,27.473,27.473,0,0,1,6.031,2.445l1.9,1.27-4.825,9.523c-.381-.255-.91-.582-1.587-.985a26.025,26.025,0,0,0-3.809-1.62,15.322,15.322,0,0,0-5.206-1.016,7.307,7.307,0,0,0-4.6,1.27,4.129,4.129,0,0,0-1.619,3.428,3.068,3.068,0,0,0,.762,2,9.514,9.514,0,0,0,2.6,1.969q1.841,1.047,3.238,1.682t4.317,1.905a26.052,26.052,0,0,1,8.666,5.873,11.8,11.8,0,0,1,3.587,8.411,17.963,17.963,0,0,1-1.619,7.873,12.972,12.972,0,0,1-4.444,5.27,20.727,20.727,0,0,1-6.253,2.825,28.568,28.568,0,0,1-7.428.921,32.443,32.443,0,0,1-6.73-.7,25.414,25.414,0,0,1-5.523-1.745q-2.223-1.049-4-2.064a18.074,18.074,0,0,1-2.6-1.713l-.825-.7,5.968-10.032q.762.635,2.1,1.62a33.491,33.491,0,0,0,4.73,2.635,14.049,14.049,0,0,0,6,1.65q7.554,0,7.555-5.143a3.9,3.9,0,0,0-.539-2,6.139,6.139,0,0,0-1.9-1.841,24.687,24.687,0,0,0-2.413-1.46q-1.047-.538-3.428-1.651t-3.524-1.682a19.817,19.817,0,0,1-7.365-5.873,12.514,12.514,0,0,1-2.6-7.586,14.5,14.5,0,0,1,5.206-11.523A17.7,17.7,0,0,1,833.2,4547.39Z" transform="translate(-542.877 -4547.39)"/><path class="a" d="M966.285,4589.926a17.2,17.2,0,0,0,5.3-.826,17.47,17.47,0,0,0,3.778-1.586l1.206-.826,5.079,10.159q-.254.19-.7.507a22.936,22.936,0,0,1-2.063,1.175,24.337,24.337,0,0,1-3.46,1.492,31.51,31.51,0,0,1-4.825,1.143,36.676,36.676,0,0,1-6.158.509,29.087,29.087,0,0,1-24.379-13.46,25.087,25.087,0,0,1-1.651-24.188,27.382,27.382,0,0,1,6.253-8.7,30.376,30.376,0,0,1,9.11-5.777,27.6,27.6,0,0,1,10.666-2.158,34.455,34.455,0,0,1,9.365,1.206,22.362,22.362,0,0,1,6.063,2.412l1.778,1.206-5.079,10.159a10.637,10.637,0,0,0-1.333-.92,20.547,20.547,0,0,0-3.555-1.429,16.976,16.976,0,0,0-5.4-.889,20.377,20.377,0,0,0-7.745,1.4,14.164,14.164,0,0,0-5.429,3.683,16.978,16.978,0,0,0-3.047,4.92,14.4,14.4,0,0,0-1.047,5.364,15.159,15.159,0,0,0,4.476,10.7Q957.968,4589.925,966.285,4589.926Z" transform="translate(-626.757 -4547.39)"/><path class="a" d="M1104.825,4550.308l21.141,52.376h-12.824l-3.873-10.474h-19.935l-3.872,10.474h-12.825l21.141-52.376Zm.381,31.427-5.841-15.238h-.127l-5.841,15.238Z" transform="translate(-718.762 -4549.355)"/><path class="a" d="M1242.283,4550.308h19.11q8,0,12.951,4.127t4.952,12q0,7.873-5.016,12.348t-12.888,4.477h-7.174v19.426h-11.936Zm11.936,23.427h3.365a12.144,12.144,0,0,0,6.571-1.619,5.784,5.784,0,0,0,2.571-5.3q0-3.746-2.571-5.366a12.149,12.149,0,0,0-6.571-1.618h-3.365Z" transform="translate(-833.047 -4549.355)"/><path class="a" d="M1401.817,4550.308v10.475h-18.03V4571.2h17.269v10.475h-17.269v10.54h18.03v10.474h-29.966v-52.376Z" transform="translate(-920.333 -4549.355)"/></g><path class="a" d="M-262.12,4268.463l-3.846-48.226h-.493l-16.667,47.733h-11.046l-16.667-47.733h-.493l-3.846,48.226h-18.541l7.3-81.362H-306.7l18.048,46.943L-270.6,4187.1h19.724l7.3,81.362Z" transform="translate(333.719 -4185.621)"/><path class="a" d="M218.816,4182.566a44.136,44.136,0,0,1,12.919,1.923,42.737,42.737,0,0,1,9.369,3.8l2.959,1.972-7.5,14.793q-.887-.591-2.465-1.528a40.353,40.353,0,0,0-5.917-2.515,23.773,23.773,0,0,0-8.087-1.578q-4.636,0-7.15,1.972a6.415,6.415,0,0,0-2.515,5.325,4.77,4.77,0,0,0,1.184,3.106,14.819,14.819,0,0,0,4.043,3.058q2.86,1.626,5.03,2.613t6.706,2.958a40.471,40.471,0,0,1,13.462,9.124,18.33,18.33,0,0,1,5.572,13.067,27.911,27.911,0,0,1-2.515,12.229,20.154,20.154,0,0,1-6.9,8.186,32.164,32.164,0,0,1-9.714,4.389,44.472,44.472,0,0,1-11.539,1.429A50.436,50.436,0,0,1,205.3,4265.8a39.5,39.5,0,0,1-8.58-2.712q-3.453-1.628-6.213-3.205a28.336,28.336,0,0,1-4.044-2.662l-1.282-1.085,9.27-15.583q1.184.988,3.254,2.516a51.817,51.817,0,0,0,7.347,4.093,21.831,21.831,0,0,0,9.32,2.564q11.735,0,11.736-7.989a6.046,6.046,0,0,0-.838-3.106,9.529,9.529,0,0,0-2.958-2.86,38.554,38.554,0,0,0-3.748-2.269q-1.627-.836-5.326-2.563t-5.473-2.614a30.774,30.774,0,0,1-11.44-9.123,19.442,19.442,0,0,1-4.043-11.785,22.522,22.522,0,0,1,8.087-17.9A27.5,27.5,0,0,1,218.816,4182.566Z" transform="translate(-15.852 -4182.566)"/><path class="a" d="M369.237,4203.374V4187.1h57.2v16.273h-19.33v65.089H388.567v-65.089Z" transform="translate(-139.842 -4185.621)"/><path class="a" d="M611.62,4187.1v16.273H583.612v16.174h26.825v16.273H583.612v16.37H611.62v16.272H565.071V4187.1Z" transform="translate(-271.77 -4185.621)"/><path class="a" d="M740.351,4187.1h29.094q11.735,0,19.132,6.263t7.4,17.9q0,8.974-4.488,15.04a23.68,23.68,0,0,1-12.18,8.531l28.009,33.629H783.745l-24.853-32.15v32.15H740.351Zm18.541,36.1h2.17q2.564,0,4.339-.1a20.808,20.808,0,0,0,4.044-.69,9.89,9.89,0,0,0,3.649-1.677,8.667,8.667,0,0,0,2.367-3.155,13.323,13.323,0,0,0,0-10.061,8.681,8.681,0,0,0-2.367-3.156,9.921,9.921,0,0,0-3.649-1.675,20.853,20.853,0,0,0-4.044-.691q-1.775-.1-4.339-.1h-2.17Z" transform="translate(-389.851 -4185.621)"/><path class="a" d="M1015.035,4268.463l-3.846-48.226h-.493l-16.667,47.733H982.983l-16.667-47.733h-.493l-3.846,48.226H943.436l7.3-81.362h19.725l18.048,46.943,18.048-46.943h19.724l7.3,81.362Z" transform="translate(-526.663 -4185.621)"/><path class="a" d="M1261.169,4187.1v81.362h-18.541V4187.1Z" transform="translate(-728.22 -4185.621)"/><path class="a" d="M1354.251,4217.969v50.494H1335.71V4187.1h18.541l32.348,50.494h.2V4187.1h18.541v81.362H1386.8l-32.348-50.494Z" transform="translate(-790.927 -4185.621)"/><path class="a" d="M1585.337,4187.1h23.571a40.3,40.3,0,0,1,28.995,11.588q12.031,11.589,12.031,29.044,0,17.555-11.982,29.142a40.238,40.238,0,0,1-29.044,11.588h-23.571Zm18.541,64.794h2.86q10.156,0,16.618-6.854t6.559-17.209q0-10.355-6.46-17.259t-16.717-6.9h-2.86Z" transform="translate(-959.093 -4185.621)"/><path class="a" d="M-11.12,4187.1H-28.28l-32.841,81.362h27.928l9.095-28.682a14.058,14.058,0,0,1-9.176-13.183,14.054,14.054,0,0,1,14.053-14.054A14.054,14.054,0,0,1-5.168,4226.6a14.058,14.058,0,0,1-9.176,13.183l9.095,28.682h26.97Z" transform="translate(150.078 -4185.621)"/></svg>